# xmcd
# 
# Track frame offsets:
#     150
#     16475
#     33344
#     51123
#     67466
#     89423
#     101007
#     119305
#     136377
#     158142
#     175701
#     192733
# 
# Disc length: 2846
# 
# Revision: 0
# Processed by: cddbd v1.5.2PL0 Copyright (c) Steve Scherf et al.
# Submitted via: fre:ac v1.0.31
# 
DISCID=ab0b1c0c
DTITLE=Pharis and Jason Romero - A Wanderer I'll Stay
DYEAR=2015
DGENRE=Folk
TTITLE0=A Wanderer I'll Stay
TTITLE1=Ballad of Old Bill
TTITLE2=There's No Companion
TTITLE3=New Lonesome Blues
TTITLE4=Lonesome and I'm Going Back Home
TTITLE5=Backstep Indi
TTITLE6=Goodbye Old Paint
TTITLE7=It's a Sin To Tell a Lie
TTITLE8=Poor Boy
TTITLE9=Cocaine Blues
TTITLE10=Old September
TTITLE11=The Dying Soldier
EXTD=
EXTT0=
EXTT1=
EXTT2=
EXTT3=
EXTT4=
EXTT5=
EXTT6=
EXTT7=
EXTT8=
EXTT9=
EXTT10=
EXTT11=
PLAYORDER=
